PathFileType   4   (X/Y/Z)																																																																																																																						
DataRate	CameraRate	NumFrames	NumMarkers	Units	OrigDataRate	OrigDataStartFrame	OrigNumFrames																																																																																																															
120	120	4	37	mm	120	88	116																																																																																																															
Frame#	Time	Sternum	R.Acromium	L.Acromium	Top.Head	R.ASIS	L.ASIS	V.Sacral	R.Thigh.Upper	R.Thigh.Front	R.Thigh.Rear	R.Knee.Lat	R.Knee.Med	R.Shank.Upper	R.Shank.Front	R.Shank.Rear	R.Ankle.Lat	R.Ankle.Med	R.Heel	R.Midfoot.Sup	R.Midfoot.Lat	R.Toe.Lat	R.Toe.Med	R.Toe.Tip	L.Thigh.Upper	L.Thigh.Front	L.Thigh.Rear	L.Knee.Lat	L.Knee.Med	L.Shank.Upper	L.Shank.Front	L.Shank.Rear	L.Ankle.Lat	L.Ankle.Med	L.Heel	L.Midfoot.Sup	L.Midfoot.Lat	L.Toe.Lat	L.Toe.Med	L.Toe.Tip																																																																														
 	 	X1	Y1	Z1	X2	Y2	Z2	X3	Y3	Z3	X4	Y4	Z4	X5	Y5	Z5	X6	Y6	Z6	X7	Y7	Z7	X8	Y8	Z8	X9	Y9	Z9	X10	Y10	Z10	X11	Y11	Z11	X12	Y12	Z12	X13	Y13	Z13	X14	Y14	Z14	X15	Y15	Z15	X16	Y16	Z16	X17	Y17	Z17	X18	Y18	Z18	X19	Y19	Z19	X20	Y20	Z20	X21	Y21	Z21	X22	Y22	Z22	X23	Y23	Z23	X24	Y24	Z24	X25	Y25	Z25	X26	Y26	Z26	X27	Y27	Z27	X28	Y28	Z28	X29	Y29	Z29	X30	Y30	Z30	X31	Y31	Z31	X32	Y32	Z32	X33	Y33	Z33	X34	Y34	Z34	X35	Y35	Z35	X36	Y36	Z36	X37	Y37	Z37	X38	Y38	Z38	X39	Y39	Z39
																																																																																																																						
88	0.85833	1490.349057	-0.000992919	1.26E+03	1378.917237	-160.4625222	1380.094074	1382.92624	163.6853836	1393.426555	1483.560171	-9.995724821	1631.28546	1475.805883	-119.563877	920.6365222	1480.895818	121.1976851	912.6534502	1297.547159	-5.695750883	939.1452659	1424.088593	-151.852957	650.9277206	1471.866304	-72.89581202	600.1923212	1415.570955	-144.0380039	550.7334819	1382.885119	-128.7803171	479.7862181	1381.462603	-28.27664901	465.9567771	1352.441788	-139.9773559	407.3603329	1412.043646	-92.759033	367.2931531	1354.735068	-148.0192813	332.2305718	1318.786338	-126.2596959	87.32423278	1327.382091	-48.83628676	98.73093157	1258.048969	-81.79932302	67.51015934	1385.266106	-50.48617332	77.52714682	1380.5893	-145.6838404	60.00413492	1460.025099	-153.7519611	38.68200481	1462.100171	-57.55224411	50.27866518	1516.160059	-85.7250635	50.66663184	1459.925046	155.8898652	677.5235094	1532.074786	93.1736068	663.7112605	1478.705007	143.1256019	589.0266072	1489.47302	130.2344758	479.6521349	1490.269357	33.90932835	480.514727	1475.102866	146.028905	410.8199786	1494.3407	97.96343807	356.2924811	1447.198737	155.397025	381.7571405	1358.722464	125.837295	123.959296	1369.571327	46.58044596	141.3637776	1288.135969	79.29350631	137.3092838	1431.398434	55.87355549	83.83125626	1416.205386	143.3687015	89.76562663	1460.977876	152.6622596	50.14023337	1475.054441	62.03409965	44.62268689	1515.977843	84.48225282	29.42856903
89	0.86667	1499.373045	-0.000992919	1.26E+03	1387.96614	-160.4625222	1379.634465	1391.97792	163.6853836	1392.96611	1492.661383	-9.995724821	1630.804053	1484.676118	-119.563877	919.9825201	1489.751944	121.1976851	911.9904692	1306.450368	-5.695750883	938.8061248	1430.062105	-151.852957	649.8097716	1477.07157	-72.89581202	598.3617344	1420.038935	-144.0380039	549.7549282	1386.29005	-128.7803171	479.3071401	1384.659758	-28.27664901	465.500651	1355.029941	-139.9773559	407.1811776	1414.305772	-92.759033	366.6332286	1356.715471	-148.0192813	332.0353252	1318.787033	-126.2596959	87.42776272	1327.474766	-48.83628676	98.76456305	1258.019304	-81.79932302	67.75108918	1385.263064	-50.48617332	77.4240241	1380.53889	-145.6838404	59.91372311	1459.91674	-153.7519611	38.37686357	1462.023163	-57.55224411	49.96787021	1516.083903	-85.7250635	50.20964867	1470.253429	155.8898652	677.8705351	1542.542961	93.1736068	664.8096411	1489.953049	143.1256019	589.5737987	1501.858354	130.2344758	480.3172702	1502.645673	33.90932835	481.1881003	1489.783839	146.028905	411.0028327	1511.310873	97.96343807	357.3378626	1463.133991	155.397025	380.7857093	1385.641298	125.837295	119.4761949	1395.744273	46.58044596	137.3239879	1314.488473	79.29350631	129.0957676	1460.379791	55.87355549	83.27266733	1444.894037	143.3687015	88.39486087	1491.700393	152.6622596	51.19388485	1506.049174	62.03409965	46.42885819	1547.719176	84.48225282	33.42128099
90	0.875	1508.426137	-0.000992919	1.26E+03	1397.061392	-160.4625222	1378.97827	1401.077868	163.6853836	1392.308502	1501.845107	-9.995724821	1630.110962	1493.52818	-119.563877	919.1225027	1498.589034	121.1976851	911.1209632	1315.337982	-5.695750883	938.2797384	1436.078014	-151.852957	648.5537646	1482.330997	-72.89581202	596.4245792	1424.594478	-144.0380039	548.6559968	1389.820208	-128.7803171	478.7086719	1387.988428	-28.27664901	464.9274683	1357.753664	-139.9773559	406.8948407	1416.690351	-92.759033	365.855502	1358.814409	-148.0192813	331.7375726	1318.853731	-126.2596959	87.45378213	1327.635413	-48.83628676	98.71796501	1258.061098	-81.79932302	67.90120879	1385.328839	-50.48617332	77.25333211	1380.560536	-145.6838404	59.75499639	1459.88384	-153.7519611	38.01809414	1462.019478	-57.55224411	49.60375366	1516.080655	-85.7250635	49.70924452	1480.501242	155.8898652	678.0146648	1552.919158	93.1736068	665.6854808	1501.092772	143.1256019	589.9216598	1514.102346	130.2344758	480.7911128	1514.880819	33.90932835	481.6698603	1504.340349	146.028905	411.0830348	1528.116749	97.96343807	358.3760613	1478.991709	155.397025	379.7663396	1412.61477	125.837295	115.4145255	1421.954223	46.58044596	133.6734524	1341.097193	79.29350631	121.4202952	1489.131646	55.87355549	83.08188285	1473.405262	143.3687015	87.4092733	1522.044341	152.6622596	52.63877248	1536.617046	62.03409965	48.6102185	1578.895076	84.48225282	37.74034028
91	0.88333	1517.513609	-0.000992919	1.26E+03	1406.205594	-160.4625222	1378.140132	1410.228386	163.6853836	1391.468459	1511.108297	-9.995724821	1629.223143	1502.373037	-119.563877	918.069435	1507.417954	121.1976851	910.0578374	1324.221327	-5.695750883	937.5813336	1442.146299	-151.852957	647.1703763	1487.655242	-72.89581202	594.3903942	1429.246994	-144.0380039	547.4455371	1393.484107	-128.7803171	477.9984779	1391.457042	-28.27664901	464.2446421	1360.621438	-139.9773559	406.5081678	1419.206117	-92.759033	364.9678776	1361.041419	-148.0192813	331.3445879	1318.999642	-126.2596959	87.4103446	1327.877033	-48.83628676	98.59925317	1258.187204	-81.79932302	67.96908073	1385.476529	-50.48617332	77.0226925	1380.6672	-145.6838404	59.53558818	1459.939305	-153.7519611	37.61270577	1462.102109	-57.55224411	49.19332464	1516.163385	-85.7250635	49.17202348	1490.668992	155.8898652	677.9632232	1563.203754	93.1736068	666.3411914	1512.119046	143.1256019	590.0753182	1526.192763	130.2344758	481.0768972	1526.962625	33.90932835	481.9631982	1518.750765	146.028905	411.0639779	1544.72994	97.96343807	359.4071808	1494.746096	155.397025	378.7055967	1439.582496	125.837295	111.7884618	1448.143204	46.58044596	130.4252022	1367.881437	79.29350631	114.3104736	1517.611747	55.87355549	83.24816031	1501.692773	143.3687015	86.80227338	1551.972072	152.6622596	54.4489152	1566.724149	62.03409965	51.13693364	1609.48263	84.48225282	42.34498457
